<svg xmlns="http://www.w3.org/2000/svg" width="300" height="100" viewBox="0 0 300 100">
  <rect width="300" height="100" fill="#FFFFFF"/>
  <rect x="0" y="0" width="10" height="85" fill="#0F172A"/>
  <rect x="12" y="0" width="6" height="85" fill="#0F172A"/>
  
  <rect x="30" y="0" width="10" height="85" fill="#0F172A"/>
  <rect x="42" y="0" width="6" height="85" fill="#0F172A"/>
  
  <rect x="60" y="0" width="10" height="85" fill="#0F172A"/>
  <rect x="72" y="0" width="6" height="85" fill="#0F172A"/>
  
  <rect x="90" y="0" width="10" height="85" fill="#0F172A"/>
  <rect x="102" y="0" width="6" height="85" fill="#0F172A"/>
  
  <rect x="120" y="0" width="10" height="85" fill="#0F172A"/>
  <rect x="132" y="0" width="6" height="85" fill="#0F172A"/>
  
  <rect x="150" y="0" width="10" height="85" fill="#0F172A"/>
  <rect x="162" y="0" width="6" height="85" fill="#0F172A"/>
  
  <rect x="180" y="0" width="10" height="85" fill="#0F172A"/>
  <rect x="192" y="0" width="6" height="85" fill="#0F172A"/>
  
  <rect x="210" y="0" width="10" height="85" fill="#0F172A"/>
  <rect x="222" y="0" width="6" height="85" fill="#0F172A"/>
  
  <rect x="240" y="0" width="10" height="85" fill="#0F172A"/>
  <rect x="252" y="0" width="6" height="85" fill="#0F172A"/>
  
  <rect x="270" y="0" width="10" height="85" fill="#0F172A"/>
  <rect x="282" y="0" width="6" height="85" fill="#0F172A"/>
  
  <text x="50%" y="95" text-anchor="middle" font-family="monospace" font-size="15" fill="#0F172A">product.barcode.product-sku</text>
</svg>